<svg xmlns="http://www.w3.org/2000/svg" viewBox="0 0 16 16" fill="none">
  <g clip-path="url(#clip0)">
    <path d="M14.6133 7.73333C13.2667 4.60667 10.7333 2.66667 7.99998 2.66667C5.26665 2.66667 2.73332 4.60667 1.38665 7.73333C1.34994 7.81744 1.33099 7.90823 1.33099 8C1.33099 8.09177 1.34994 8.18255 1.38665 8.26667C2.73332 11.3933 5.26665 13.3333 7.99998 13.3333C10.7333 13.3333 13.2667 11.3933 14.6133 8.26667C14.65 8.18255 14.669 8.09177 14.669 8C14.669 7.90823 14.65 7.81744 14.6133 7.73333ZM7.99998 12C5.88665 12 3.88665 10.4733 2.73332 8C3.88665 5.52667 5.88665 4 7.99998 4C10.1133 4 12.1133 5.52667 13.2667 8C12.1133 10.4733 10.1133 12 7.99998 12ZM7.99998 5.33333C7.47257 5.33333 6.95699 5.48973 6.51846 5.78275C6.07993 6.07576 5.73814 6.49224 5.5363 6.97951C5.33447 7.46678 5.28166 8.00296 5.38456 8.52024C5.48745 9.03752 5.74143 9.51268 6.11437 9.88562C6.48731 10.2586 6.96246 10.5125 7.47974 10.6154C7.99703 10.7183 8.5332 10.6655 9.02047 10.4637C9.50774 10.2618 9.92422 9.92005 10.2172 9.48152C10.5103 9.04299 10.6667 8.52742 10.6667 8C10.6667 7.29276 10.3857 6.61448 9.8856 6.11438C9.3855 5.61428 8.70723 5.33333 7.99998 5.33333ZM7.99998 9.33333C7.73628 9.33333 7.47849 9.25513 7.25922 9.10862C7.03996 8.96212 6.86906 8.75388 6.76814 8.51024C6.66723 8.26661 6.64082 7.99852 6.69227 7.73988C6.74372 7.48124 6.8707 7.24366 7.05717 7.05719C7.24364 6.87072 7.48122 6.74373 7.73986 6.69229C7.9985 6.64084 8.26659 6.66724 8.51023 6.76816C8.75386 6.86908 8.9621 7.03997 9.10861 7.25924C9.25512 7.4785 9.33332 7.73629 9.33332 8C9.33332 8.35362 9.19284 8.69276 8.94279 8.94281C8.69274 9.19286 8.35361 9.33333 7.99998 9.33333Z" fill="#181818"/>
  </g>
  <defs>
    <clipPath id="clip0">
      <rect width="16" height="16" fill="white" />
    </clipPath>
  </defs>
</svg>
